# xmcd
#
# Track frame offsets:
#	150
#	21675
#	36886
#	76223
#	112469
#	200580
#	219930
#	237975
#
# Disc length: 4034 seconds
#
# Revision: 1
# Processed by: cddbd v1.5PL3 Copyright (c) Steve Scherf et al.
# Submitted via: EasyCDDAExtractor 5.0.7
#
DISCID=730fc008
DTITLE=Allman Brothers - Second Coming
DYEAR=1900
DGENRE=
TTITLE0=Revival
TTITLE1=Leave My Blues At Home
TTITLE2=In Memory of Elizabeth Reed
TTITLE3=Don't Keep Me Wondering
TTITLE4=Don't Want You No More
TTITLE5=Born In Chicago
TTITLE6=Jam/Willie Jean
TTITLE7=Travelin' Music Jam
EXTD=
EXTT0=
EXTT1=
EXTT2=
EXTT3=
EXTT4=
EXTT5=
EXTT6=
EXTT7=
PLAYORDER=
